<svg width="65" height="12" viewBox="0 0 65 12" fill="none" xmlns="http://www.w3.org/2000/svg">
<path d="M11.2126 4.56563C11.1656 4.41796 11.0752 4.28792 10.9531 4.19256C10.8309 4.09721 10.6828 4.04098 10.5282 4.03125L7.74383 3.83906L6.71258 1.2375C6.65627 1.09425 6.55825 0.971205 6.43122 0.884289C6.30419 0.797374 6.154 0.750592 6.00008 0.75C5.84616 0.750592 5.69596 0.797374 5.56893 0.884289C5.4419 0.971205 5.34389 1.09425 5.28758 1.2375L4.23758 3.85312L1.47195 4.03125C1.3175 4.04161 1.16971 4.09807 1.0477 4.19334C0.925693 4.28861 0.835078 4.4183 0.787578 4.56563C0.7388 4.71521 0.73595 4.87598 0.779396 5.02721C0.822841 5.17843 0.91059 5.31317 1.03133 5.41406L3.15945 7.21406L2.52664 9.70312C2.48286 9.87151 2.49074 10.0492 2.54925 10.213C2.60777 10.3769 2.71422 10.5193 2.85477 10.6219C2.99119 10.7198 3.15372 10.7748 3.32157 10.7798C3.48941 10.7848 3.65493 10.7396 3.79695 10.65L5.99539 9.25781H6.00477L8.37195 10.7531C8.49338 10.832 8.63495 10.8743 8.77977 10.875C8.89801 10.8741 9.01446 10.846 9.12018 10.7931C9.22589 10.7401 9.31806 10.6636 9.38958 10.5694C9.46111 10.4753 9.51009 10.366 9.53277 10.2499C9.55544 10.1339 9.55121 10.0142 9.52039 9.9L8.85008 7.17656L10.9688 5.41406C11.0896 5.31317 11.1773 5.17843 11.2208 5.02721C11.2642 4.87598 11.2614 4.71521 11.2126 4.56563Z" fill="#141313"/>
<path d="M24.4126 4.56563C24.3657 4.41796 24.2752 4.28792 24.1531 4.19256C24.0309 4.09721 23.8829 4.04098 23.7282 4.03125L20.9438 3.83906L19.9126 1.2375C19.8563 1.09425 19.7583 0.971205 19.6312 0.884289C19.5042 0.797374 19.354 0.750592 19.2001 0.75C19.0462 0.750592 18.896 0.797374 18.7689 0.884289C18.6419 0.971205 18.5439 1.09425 18.4876 1.2375L17.4376 3.85312L14.672 4.03125C14.5175 4.04161 14.3697 4.09807 14.2477 4.19334C14.1257 4.28861 14.0351 4.4183 13.9876 4.56563C13.9388 4.71521 13.936 4.87598 13.9794 5.02721C14.0229 5.17843 14.1106 5.31317 14.2313 5.41406L16.3595 7.21406L15.7267 9.70312C15.6829 9.87151 15.6907 10.0492 15.7493 10.213C15.8078 10.3769 15.9142 10.5193 16.0548 10.6219C16.1912 10.7198 16.3537 10.7748 16.5216 10.7798C16.6894 10.7848 16.8549 10.7396 16.997 10.65L19.1954 9.25781H19.2048L21.572 10.7531C21.6934 10.832 21.835 10.8743 21.9798 10.875C22.098 10.8741 22.2145 10.846 22.3202 10.7931C22.4259 10.7401 22.5181 10.6636 22.5896 10.5694C22.6611 10.4753 22.7101 10.366 22.7328 10.2499C22.7555 10.1339 22.7512 10.0142 22.7204 9.9L22.0501 7.17656L24.1688 5.41406C24.2896 5.31317 24.3773 5.17843 24.4208 5.02721C24.4642 4.87598 24.4614 4.71521 24.4126 4.56563Z" fill="#141313"/>
<path d="M37.6132 4.56563C37.5662 4.41796 37.4758 4.28792 37.3536 4.19256C37.2315 4.09721 37.0834 4.04098 36.9288 4.03125L34.1444 3.83906L33.1132 1.2375C33.0568 1.09425 32.9588 0.971205 32.8318 0.884289C32.7048 0.797374 32.5546 0.750592 32.4007 0.75C32.2467 0.750592 32.0965 0.797374 31.9695 0.884289C31.8425 0.971205 31.7445 1.09425 31.6882 1.2375L30.6382 3.85312L27.8725 4.03125C27.7181 4.04161 27.5703 4.09807 27.4483 4.19334C27.3263 4.28861 27.2357 4.4183 27.1882 4.56563C27.1394 4.71521 27.1365 4.87598 27.18 5.02721C27.2234 5.17843 27.3112 5.31317 27.4319 5.41406L29.56 7.21406L28.9272 9.70312C28.8834 9.87151 28.8913 10.0492 28.9498 10.213C29.0083 10.3769 29.1148 10.5193 29.2553 10.6219C29.3918 10.7198 29.5543 10.7748 29.7221 10.7798C29.89 10.7848 30.0555 10.7396 30.1975 10.65L32.396 9.25781H32.4053L34.7725 10.7531C34.894 10.832 35.0355 10.8743 35.1803 10.875C35.2986 10.8741 35.415 10.846 35.5208 10.7931C35.6265 10.7401 35.7186 10.6636 35.7902 10.5694C35.8617 10.4753 35.9107 10.366 35.9333 10.2499C35.956 10.1339 35.9518 10.0142 35.921 9.9L35.2507 7.17656L37.3694 5.41406C37.4901 5.31317 37.5779 5.17843 37.6213 5.02721C37.6648 4.87598 37.6619 4.71521 37.6132 4.56563Z" fill="#141313"/>
<path d="M50.8124 4.56563C50.7655 4.41796 50.675 4.28792 50.5529 4.19256C50.4308 4.09721 50.2827 4.04098 50.1281 4.03125L47.3437 3.83906L46.3124 1.2375C46.2561 1.09425 46.1581 0.971205 46.0311 0.884289C45.904 0.797374 45.7538 0.750592 45.5999 0.75C45.446 0.750592 45.2958 0.797374 45.1688 0.884289C45.0418 0.971205 44.9437 1.09425 44.8874 1.2375L43.8374 3.85312L41.0718 4.03125C40.9174 4.04161 40.7696 4.09807 40.6476 4.19334C40.5255 4.28861 40.4349 4.4183 40.3874 4.56563C40.3387 4.71521 40.3358 4.87598 40.3792 5.02721C40.4227 5.17843 40.5104 5.31317 40.6312 5.41406L42.7593 7.21406L42.1265 9.70312C42.0827 9.87151 42.0906 10.0492 42.1491 10.213C42.2076 10.3769 42.3141 10.5193 42.4546 10.6219C42.591 10.7198 42.7536 10.7748 42.9214 10.7798C43.0893 10.7848 43.2548 10.7396 43.3968 10.65L45.5952 9.25781H45.6046L47.9718 10.7531C48.0932 10.832 48.2348 10.8743 48.3796 10.875C48.4979 10.8741 48.6143 10.846 48.72 10.7931C48.8257 10.7401 48.9179 10.6636 48.9894 10.5694C49.061 10.4753 49.1099 10.366 49.1326 10.2499C49.1553 10.1339 49.1511 10.0142 49.1202 9.9L48.4499 7.17656L50.5687 5.41406C50.6894 5.31317 50.7772 5.17843 50.8206 5.02721C50.8641 4.87598 50.8612 4.71521 50.8124 4.56563Z" fill="#141313"/>
<path opacity="0.5" d="M64.0129 4.56563C63.9659 4.41796 63.8755 4.28792 63.7534 4.19256C63.6312 4.09721 63.4831 4.04098 63.3285 4.03125L60.5441 3.83906L59.5129 1.2375C59.4566 1.09425 59.3585 0.971205 59.2315 0.884289C59.1045 0.797374 58.9543 0.750592 58.8004 0.75C58.6465 0.750592 58.4963 0.797374 58.3692 0.884289C58.2422 0.971205 58.1442 1.09425 58.0879 1.2375L57.0379 3.85312L54.2722 4.03125C54.1178 4.04161 53.97 4.09807 53.848 4.19334C53.726 4.28861 53.6354 4.4183 53.5879 4.56563C53.5391 4.71521 53.5362 4.87598 53.5797 5.02721C53.6231 5.17843 53.7109 5.31317 53.8316 5.41406L55.9597 7.21406L55.3269 9.70312C55.2832 9.87151 55.291 10.0492 55.3495 10.213C55.4081 10.3769 55.5145 10.5193 55.6551 10.6219C55.7915 10.7198 55.954 10.7748 56.1219 10.7798C56.2897 10.7848 56.4552 10.7396 56.5972 10.65L58.7957 9.25781H58.8051L61.1722 10.7531C61.2937 10.832 61.4352 10.8743 61.5801 10.875C61.6983 10.8741 61.8148 10.846 61.9205 10.7931C62.0262 10.7401 62.1183 10.6636 62.1899 10.5694C62.2614 10.4753 62.3104 10.366 62.3331 10.2499C62.3557 10.1339 62.3515 10.0142 62.3207 9.9L61.6504 7.17656L63.7691 5.41406C63.8899 5.31317 63.9776 5.17843 64.0211 5.02721C64.0645 4.87598 64.0616 4.71521 64.0129 4.56563Z" fill="#141313"/>
<path d="M58.3692 0.884289C58.4963 0.797374 58.6465 0.750592 58.8004 0.75L58.8004 9.25781H58.7957L56.5972 10.65C56.4552 10.7396 56.2897 10.7848 56.1219 10.7798C55.954 10.7748 55.7915 10.7198 55.6551 10.6219C55.5145 10.5193 55.4081 10.3769 55.3495 10.213C55.291 10.0492 55.2832 9.87151 55.3269 9.70312L55.9597 7.21406L53.8316 5.41406C53.7109 5.31317 53.6231 5.17843 53.5797 5.02721C53.5362 4.87598 53.5391 4.71521 53.5879 4.56563C53.6354 4.4183 53.726 4.28861 53.848 4.19334C53.97 4.09807 54.1178 4.04161 54.2722 4.03125L57.0379 3.85313L58.0879 1.2375C58.1442 1.09425 58.2422 0.971205 58.3692 0.884289Z" fill="#141313"/>
</svg>
