<svg width="106" height="22" viewBox="0 0 106 22" fill="none" xmlns="http://www.w3.org/2000/svg">
<path id="Logo" fill-rule="evenodd" clip-rule="evenodd" d="M0 10.782V21.5641H6.50987H13.0197V19.6247V17.6853H8.63316H4.24658V8.84266V0H2.12329H0V10.782ZM41.2059 10.7844V21.5688L46.0941 21.5506C50.7807 21.5331 51.0035 21.5284 51.4957 21.4377C53.4561 21.0762 54.7505 20.4566 55.8589 19.349C56.6277 18.5807 57.0287 17.8978 57.3145 16.87C57.4 16.5625 57.4158 16.379 57.4187 15.6536C57.4218 14.8952 57.4097 14.7528 57.3115 14.3847C56.8728 12.7416 55.6199 11.382 53.924 10.709C53.672 10.609 53.5264 10.5258 53.5265 10.4819C53.5266 10.4408 53.7216 10.3135 54.0066 10.1685C55.2441 9.53867 56.2454 8.51135 56.6713 7.4343C57.4205 5.53952 56.9037 3.39683 55.3576 1.98704C54.1958 0.92781 52.4712 0.23702 50.5192 0.0490848C50.1999 0.0183318 48.3653 0 45.6076 0H41.2059V10.7844ZM77.2785 10.782V21.5641H79.2618H81.2451V10.782V0H79.2618H77.2785V10.782ZM83.9517 10.782V21.5641H85.935H87.9183V10.782V0H85.935H83.9517V10.782ZM50.2695 3.70473C51.695 4.08771 52.4955 4.9994 52.4983 6.24301C52.4999 6.94373 52.2785 7.476 51.7799 7.97017C51.5273 8.22063 51.3545 8.34345 51.0498 8.48923C50.2126 8.88971 49.6543 8.9581 47.2208 8.9581H45.4524V6.25395V3.54976L47.6341 3.56629L49.8157 3.58282L50.2695 3.70473ZM21.3111 6.09779C18.5952 6.41012 16.2627 8.06885 15.0768 10.5311C13.4566 13.8951 14.3732 17.9778 17.2663 20.284C19.0826 21.7318 21.4902 22.3068 23.7927 21.8425C24.7822 21.643 25.9175 21.1471 26.705 20.5706C26.93 20.4059 27.1242 20.2712 27.1367 20.2712C27.1492 20.2712 27.1595 20.5621 27.1595 20.9176V21.5641H29.0261H30.8927V14.0374V6.51078H29.0261H27.1595V7.16288C27.1595 7.79147 27.1563 7.81271 27.0723 7.75162C26.3977 7.26151 26.16 7.11342 25.6428 6.86135C24.7581 6.43016 23.9617 6.19623 23.043 6.09765C22.5331 6.04293 21.7876 6.04298 21.3111 6.09779ZM66.452 6.10047C65.1628 6.24583 63.8585 6.70615 62.8354 7.37695C62.2847 7.73809 62.1229 7.86835 61.6289 8.34858C59.9797 9.9518 59.1386 12.0796 59.2341 14.4068C59.2864 15.6787 59.5327 16.6113 60.1122 17.7315C61.2817 19.9917 63.5711 21.5057 66.4378 21.9146C67.1248 22.0126 68.5526 22.0108 69.2286 21.9111C70.9641 21.6551 72.4765 20.9879 73.6244 19.9719C74.0451 19.5995 74.6229 18.9764 74.5925 18.9278C74.5575 18.8717 71.5473 16.6695 71.5057 16.6695C71.4842 16.6695 71.2781 16.8579 71.0476 17.0882C70.0612 18.074 69.1064 18.4704 67.7185 18.4703C66.8453 18.4702 66.1822 18.3349 65.542 18.0262C64.6268 17.585 63.9472 16.807 63.6567 15.8681C63.6028 15.6939 63.5587 15.5329 63.5587 15.5102C63.5587 15.4861 65.9525 15.4689 69.2958 15.4689H75.0328L75.0694 15.2495C75.1305 14.884 75.1141 13.0369 75.0462 12.6291C74.9544 12.0778 74.7717 11.3906 74.5857 10.8975C73.4578 7.90668 70.6148 6.01564 67.3055 6.05503C67.0286 6.05831 66.6445 6.07876 66.452 6.10047ZM97.3447 6.10047C96.0555 6.24583 94.7513 6.70615 93.7281 7.37695C93.1774 7.73809 93.0156 7.86835 92.5216 8.34858C90.8724 9.9518 90.0313 12.0796 90.1268 14.4068C90.1791 15.6787 90.4254 16.6113 91.005 17.7315C92.1744 19.9917 94.4638 21.5057 97.3305 21.9146C98.0175 22.0126 99.4454 22.0108 100.121 21.9111C101.857 21.6551 103.369 20.9879 104.517 19.9719C104.938 19.5995 105.516 18.9764 105.485 18.9278C105.45 18.8717 102.44 16.6695 102.398 16.6695C102.377 16.6695 102.171 16.8579 101.94 17.0882C100.954 18.074 99.9991 18.4704 98.6113 18.4703C97.738 18.4702 97.0749 18.3349 96.4348 18.0262C95.5195 17.585 94.8399 16.807 94.5494 15.8681C94.4955 15.6939 94.4515 15.5329 94.4515 15.5102C94.4515 15.4861 96.8452 15.4689 100.189 15.4689H105.926L105.962 15.2495C106.023 14.884 106.007 13.0369 105.939 12.6291C105.847 12.0778 105.664 11.3906 105.478 10.8975C104.351 7.90668 101.508 6.01564 98.1982 6.05503C97.9213 6.05831 97.5372 6.07876 97.3447 6.10047ZM68.412 9.62876C68.9192 9.75703 69.5182 10.0698 69.8731 10.3917C70.4335 10.8999 70.712 11.401 70.9048 12.2481L70.9337 12.3751H67.2954H63.6571L63.7441 12.125C63.9681 11.4805 64.4576 10.7277 64.8766 10.383C65.3863 9.96381 65.9456 9.69747 66.5687 9.57732C66.9905 9.496 67.9982 9.52412 68.412 9.62876ZM99.3047 9.62876C99.8119 9.75703 100.411 10.0698 100.766 10.3917C101.326 10.8999 101.605 11.401 101.798 12.2481L101.826 12.3751H98.1881H94.5498L94.6368 12.125C94.8609 11.4805 95.3503 10.7277 95.7693 10.383C96.279 9.96381 96.8383 9.69747 97.4614 9.57732C97.8832 9.496 98.8909 9.52412 99.3047 9.62876ZM23.7295 9.78589C24.2164 9.90914 24.9579 10.2777 25.3395 10.5862C25.9437 11.0746 26.4963 11.8969 26.7314 12.6574C27.0197 13.5898 26.9807 14.7427 26.6288 15.6909C26.2324 16.7594 25.2712 17.7267 24.2166 18.1184C23.3061 18.4565 22.1143 18.4687 21.2497 18.1486C20.6278 17.9184 20.1216 17.5914 19.6626 17.1236C18.909 16.3556 18.4999 15.3864 18.4476 14.2452C18.3634 12.4094 19.3032 10.7978 20.8887 10.0593C21.2218 9.90406 21.7576 9.74794 22.1896 9.68024C22.4889 9.63328 23.3639 9.69331 23.7295 9.78589ZM49.6057 12.3761C50.3355 12.4391 50.8479 12.5706 51.4023 12.8371C52.1528 13.198 52.5711 13.6406 52.8156 14.3329C52.9517 14.7178 52.9785 15.3734 52.8754 15.7921C52.5629 17.061 51.3598 17.8276 49.4691 17.9626C49.1207 17.9874 48.0745 18.0079 47.1441 18.0081L45.4524 18.0086V15.1687V12.3289L47.2607 12.3293C48.2553 12.3295 49.3105 12.3506 49.6057 12.3761Z" fill="#141313"/>
</svg>
